<svg xmlns="http://www.w3.org/2000/svg" viewBox="0 0 295 80" enable-background="new 0 0 295 80"><style type="text/css">.st0{fill:#FFFFFF;} .st1{fill:#7BCDCF;}</style><path class="st0" d="M36.4 14c-1.1.9-2.7.9-3.8-.1-2-1.8-5.7-4.3-10.7-4.3-7.4 0-11.3 3.8-11.3 8.3 0 13.4 29.8 3.7 29.8 23.2 0 7.3-5.8 14-18.2 14-8.3 0-14.2-4.1-17.1-6.8-1.3-1.2-1.2-3.2 0-4.3 1.1-1 2.7-1 3.9 0 2.5 2.1 7.3 5.5 13.2 5.5 7.1 0 11.5-3.1 11.5-8.1 0-14.2-29.8-3.7-29.8-23.4 0-7.6 6.2-14 17.5-14 7.2 0 12.3 3.2 15.1 5.5 1.4 1.1 1.4 3.3-.1 4.5z"/><path class="st0" d="M46.1 7.6c0-1.8 1.5-3.3 3.3-3.3h2.4c.9 0 1.6.6 1.9 1.2l15.2 32.1c.3.6 1.2.6 1.5 0l15.2-32.1c.3-.6 1-1.2 1.9-1.2h2.1c1.8 0 3.3 1.5 3.3 3.3v43.8c0 1.8-1.5 3.3-3.3 3.3-1.8 0-3.3-1.5-3.3-3.3v-30.3c0-.9-1.2-1.2-1.6-.4l-12 25.3c-.6 1.4-1.8 1.9-3.2 1.9-1.5 0-2.7-.5-3.3-1.9l-12-25.3c-.4-.8-1.6-.5-1.6.4v30.3c0 1.8-1.5 3.3-3.3 3.3-1.8 0-3.3-1.5-3.3-3.3v-43.8z"/><path class="st0" d="M108.8 51.4c0 1.8-1.5 3.3-3.3 3.3-1.8 0-3.3-1.5-3.3-3.3v-43.8c0-1.8 1.5-3.3 3.3-3.3 1.8 0 3.3 1.5 3.3 3.3v43.8z"/><path class="st0" d="M127.5 49.1h18.8c1.5 0 2.8 1.2 2.8 2.8 0 1.5-1.2 2.8-2.8 2.8h-25.4c-1.5 0-2.8-1.2-2.8-2.8v-44.8c0-1.5 1.2-2.8 2.8-2.8h1c1.5 0 2.8 1.2 2.8 2.8v39.2c0 1.6 1.2 2.8 2.8 2.8z"/><path class="st0" d="M157.4 54.6c-1.5 0-2.8-1.2-2.8-2.8v-44.7c0-1.5 1.2-2.8 2.8-2.8h24.6c1.5 0 2.8 1.2 2.8 2.8 0 1.5-1.2 2.8-2.8 2.8h-18c-1.5 0-2.8 1.2-2.8 2.8v11.5c0 1.5 1.2 2.8 2.8 2.8h14.1c1.5 0 2.8 1.2 2.8 2.8 0 1.5-1.2 2.8-2.8 2.8h-14.1c-1.5 0-2.8 1.2-2.8 2.8v11.1c0 1.5 1.2 2.8 2.8 2.8h18c1.5 0 2.8 1.2 2.8 2.8 0 1.5-1.2 2.8-2.8 2.8h-24.6z"/><path class="st1" d="M197.5 42.3c0 7.4 4.1 11.6 11 11.6 2.7 0 5-.6 7.1-1.8.4-.2.8-.1 1 .3l.1.1c.1.3 0 .8-.3 1-2.3 1.3-4.7 2.1-7.9 2.1-8 0-12.8-4.8-12.8-13.2 0-8.4 4.8-13.3 12.8-13.3 3.1 0 5.4.6 7.8 1.7.3.1.5.6.4 1v.1c-.2.4-.6.6-1 .4-2.2-1-4.5-1.5-7.2-1.5-6.9-.2-11 4.1-11 11.5z"/><path class="st1" d="M222.2 55.1c-.4 0-.7-.3-.7-.7v-24.3c0-.4.3-.7.7-.7h.2c.4 0 .8.3.8.7v23c0 .3.2.5.5.5h14.9c.4 0 .7.3.7.7v.1c0 .4-.3.7-.7.7h-16.4z"/><path class="st1" d="M263 29.4c.4 0 .7.3.7.7v13.1c0 8.2-3.1 12.3-11 12.3s-11-4.1-11-12.3v-13.1c0-.4.3-.7.7-.7h.2c.4 0 .8.3.8.7v13.1c0 7 2.6 10.7 9.3 10.7 6.7 0 9.3-3.7 9.3-10.7v-13.1c0-.4.4-.7.8-.7h.2z"/><path class="st1" d="M271.5 55.1c-.4 0-.7-.3-.7-.7v-24.3c0-.4.3-.7.7-.7h10.1c5.9 0 8.9 2 8.9 6.7 0 2.6-1.1 4.4-3.2 5.4-.2.1-.1.3 0 .4 3 .9 4.6 3 4.6 6.3 0 4.6-2.8 7-8.7 7h-11.7zm10.1-24.1h-8.6c-.3 0-.5.2-.5.5v9.2c0 .3.2.5.5.5h8.8c4.8 0 6.9-1.7 6.9-5 .1-3.7-2.3-5.2-7.1-5.2zm1.4 11.7h-10c-.3 0-.5.2-.5.5v9.9c0 .3.2.5.5.5h10.1c4.9 0 7-1.9 7-5.4 0-3.6-2.2-5.5-7.1-5.5z"/><path class="st0" d="M105.2 76h-1.3c-9.8-.6-16-8.3-16.3-8.7-.9-1.1-.7-2.8.4-3.7 1.1-.9 2.8-.7 3.7.4.1.1 5.1 6.3 12.6 6.7 5 .3 10.1-2 15.2-7 1-1 2.7-1 3.7.1 1 1 1 2.7-.1 3.7-5.7 5.6-11.7 8.5-17.9 8.5z"/><path class="st1" d="M197.8 23.2c-.3 0-.5-.2-.5-.5v-17.9c0-.3.2-.5.5-.5h6.3c5.8 0 9.4 3.3 9.4 9.5s-3.6 9.4-9.4 9.4h-6.3zm6.4-17.7h-5.3c-.2 0-.4.2-.4.4v15.8c0 .2.2.4.4.4h5.3c5 0 8.1-2.9 8.1-8.2s-3.1-8.4-8.1-8.4z"/><path class="st1" d="M216 5.5c-.3 0-.5-.2-.5-.5v-.2c0-.3.2-.5.5-.5h4.7c.3 0 .5.2.5.5v.1c0 .3-.2.5-.5.5h-1.3c-.2 0-.4.2-.4.4v15.8c0 .2.2.4.4.4h1.3c.3 0 .5.2.5.5v.1c0 .3-.2.5-.5.5h-4.7c-.3 0-.5-.2-.5-.5v-.1c0-.3.2-.5.5-.5h1.3c.2 0 .4-.2.4-.4v-15.8c0-.2-.2-.4-.4-.4h-1.3z"/><path class="st1" d="M240.8 23.2c-.3 0-.7-.2-.9-.5l-4.5-6.4c-.1-.2-.4-.3-.6-.3-.7.1-1.4.1-2.3.1h-6c-.2 0-.4.2-.4.4v6.1c0 .3-.2.5-.6.5h-.2c-.3 0-.5-.2-.5-.5v-17.8c0-.3.2-.5.5-.5h7.1c6 0 8.2 1.8 8.2 5.9 0 2.8-1.1 4.6-3.9 5.4-.2.1-.2.2-.1.4l4.7 6.7c.1.2 0 .5-.2.5h-.3zm-8.3-17.7h-6c-.2 0-.4.2-.4.4v8.8c0 .2.2.4.4.4h6c5.1 0 6.9-1.6 6.9-4.7 0-3.5-1.8-4.9-6.9-4.9z"/><path class="st1" d="M244.8 23.2c-.3 0-.5-.2-.5-.5v-17.9c0-.3.2-.5.5-.5h12.3c.3 0 .5.2.5.5v.1c0 .3-.2.5-.5.5h-11.3c-.2 0-.4.2-.4.4v6.8c0 .2.2.4.4.4h9.2c.3 0 .5.2.5.5v.1c0 .3-.2.5-.5.5h-9.2c-.2 0-.4.2-.4.4v7.2c0 .2.2.4.4.4h11.3c.3 0 .5.2.5.5v.1c0 .3-.2.5-.5.5h-12.3z"/><path class="st1" d="M259.5 13.8c0 5.4 3 8.5 8.1 8.5 2 0 3.7-.5 5.2-1.3.3-.1.6-.1.7.2l.1.1c.1.2 0 .6-.2.7-1.7.9-3.5 1.5-5.8 1.5-5.8 0-9.4-3.5-9.4-9.7s3.5-9.7 9.4-9.7c2.2 0 4 .4 5.7 1.2.2.1.4.5.3.7v.1c-.1.3-.5.4-.7.3-1.6-.7-3.3-1.1-5.3-1.1-5.1-.1-8.1 3.1-8.1 8.5z"/><path class="st1" d="M275.4 5.4c-.3 0-.5-.2-.5-.5v-.1c0-.3.2-.5.5-.5h16c.3 0 .5.2.5.5v.1c0 .3-.2.5-.5.5h-7c-.2 0-.4.2-.4.4v16.8c0 .3-.2.5-.5.5h-.2c-.3 0-.5-.2-.5-.5v-16.8c0-.2-.2-.4-.4-.4h-7z"/></svg>