<svg xmlns="http://www.w3.org/2000/svg" viewBox="0 0 161 43" enable-background="new 0 0 161 43"><style type="text/css">.st0{fill:#2C3150;} .st1{fill:#7BCDCF;}</style><path class="st0" d="M18.2 6.2c-.6.5-1.5.5-2.1-.1-1.1-1-3.2-2.4-6-2.4-4.1 0-6.3 2.1-6.3 4.6 0 7.5 16.6 2 16.6 13 0 4.1-3.2 7.8-10.2 7.8-4.7 0-7.9-2.3-9.6-3.8-.7-.7-.7-1.8 0-2.4.6-.5 1.5-.6 2.2 0 1.4 1.2 4.1 3.1 7.4 3.1 4 0 6.4-1.7 6.4-4.5 0-8-16.6-2.2-16.6-13.2 0-4.3 3.5-7.8 9.8-7.8 4 0 6.9 1.8 8.4 3.1.8.7.8 1.9 0 2.6z"/><path class="st0" d="M23.6 2.6c0-1 .8-1.8 1.8-1.8h1.3c.5 0 .9.3 1 .7l8.5 18c.2.4.7.4.8 0l8.6-18c.2-.4.6-.7 1-.7h1.1c1 0 1.8.8 1.8 1.8v24.5c0 1-.8 1.8-1.8 1.8s-1.8-.8-1.8-1.8v-17c0-.5-.7-.6-.9-.2l-6.7 14.1c-.4.8-1 1-1.8 1s-1.5-.3-1.8-1l-6.6-14.1c-.2-.4-.9-.3-.9.2v16.9c0 1-.8 1.8-1.8 1.8s-1.8-.8-1.8-1.8v-24.4z"/><path class="st0" d="M58.7 27.1c0 1-.8 1.8-1.8 1.8s-1.8-.8-1.8-1.8v-24.5c0-1 .8-1.8 1.8-1.8s1.8.8 1.8 1.8v24.5z"/><path class="st0" d="M69.1 25.8h10.5c.9 0 1.5.7 1.5 1.5 0 .9-.7 1.5-1.5 1.5h-14.2c-.9 0-1.5-.7-1.5-1.5v-25c0-.9.7-1.5 1.5-1.5h.6c.9 0 1.5.7 1.5 1.5v21.9c0 .9.7 1.6 1.6 1.6z"/><path class="st0" d="M85.8 28.9c-.9 0-1.5-.7-1.5-1.5v-25c0-.9.7-1.5 1.5-1.5h13.7c.9 0 1.5.7 1.5 1.5 0 .9-.7 1.5-1.5 1.5h-10c-.9 0-1.5.7-1.5 1.5v6.4c0 .9.7 1.5 1.5 1.5h7.9c.9 0 1.5.7 1.5 1.5 0 .9-.7 1.5-1.5 1.5h-7.9c-.9 0-1.5.7-1.5 1.5v6.2c0 .9.7 1.5 1.5 1.5h10.1c.9 0 1.5.7 1.5 1.5 0 .9-.7 1.5-1.5 1.5h-13.8z"/><path class="st1" d="M108.2 22c0 4.1 2.3 6.5 6.1 6.5 1.5 0 2.8-.3 4-1 .2-.1.4 0 .5.1.1.2 0 .4-.2.5-1.3.7-2.7 1.2-4.4 1.2-4.5 0-7.2-2.7-7.2-7.4s2.7-7.4 7.2-7.4c1.7 0 3 .3 4.4.9.2.1.3.3.2.5-.1.2-.3.3-.6.2-1.3-.5-2.5-.8-4-.8-3.7.1-6 2.6-6 6.7z"/><path class="st1" d="M122 29.2c-.2 0-.4-.2-.4-.4v-13.6c0-.2.2-.4.4-.4h.1c.2 0 .4.2.4.4v12.8c0 .1.1.3.3.3h8.3c.2 0 .4.2.4.4s-.2.4-.4.4h-9.1z"/><path class="st1" d="M144.9 14.8c.2 0 .4.2.4.4v7.3c0 4.6-1.7 6.9-6.1 6.9s-6.1-2.3-6.1-6.9v-7.3c0-.2.2-.4.4-.4h.1c.2 0 .4.2.4.4v7.3c0 3.9 1.4 6 5.2 6 3.8 0 5.2-2.1 5.2-6v-7.3c0-.2.2-.4.4-.4h.1z"/><path class="st1" d="M149.6 29.2c-.2 0-.4-.2-.4-.4v-13.6c0-.2.2-.4.4-.4h5.7c3.3 0 5 1.1 5 3.7 0 1.4-.6 2.4-1.8 3-.1.1-.1.2 0 .2 1.7.5 2.5 1.7 2.5 3.5 0 2.6-1.5 3.9-4.9 3.9h-6.5zm5.6-13.5h-4.8c-.1 0-.3.1-.3.3v5c0 .1.1.3.3.3h4.9c2.7 0 3.9-.9 3.9-2.8 0-2-1.3-2.8-4-2.8zm.8 6.5h-5.6c-.1 0-.3.1-.3.3v5.5c0 .1.1.3.3.3h5.7c2.7 0 3.9-1 3.9-3s-1.3-3.1-4-3.1z"/><path class="st0" d="M56.7 40.8h-.7c-5.5-.4-8.9-4.7-9.1-4.8-.5-.6-.4-1.6.2-2.1.6-.5 1.6-.4 2.1.2 0 .1 2.9 3.5 7 3.7 2.8.2 5.7-1.1 8.5-3.9.6-.6 1.5-.6 2.1 0 .6.6.6 1.5 0 2.1-3.3 3.2-6.7 4.8-10.1 4.8z"/><path class="st1" d="M108.4 11.3c-.2 0-.3-.1-.3-.3v-10c0-.2.1-.3.3-.3h3.5c3.3 0 5.3 1.8 5.3 5.3s-2 5.3-5.3 5.3h-3.5zm3.5-9.9h-2.9c-.1 0-.2.1-.2.2v8.9c0 .1.1.2.2.2h2.9c2.8 0 4.5-1.6 4.5-4.6s-1.6-4.7-4.5-4.7z"/><path class="st1" d="M118.5 1.4c-.2 0-.3-.1-.3-.3 0-.2.1-.3.3-.3h2.6c.2 0 .3.1.3.3 0 .2-.1.3-.3.3h-.8c-.1 0-.2.1-.2.2v8.9c0 .1.1.2.2.2h.8c.2 0 .3.1.3.3 0 .2-.1.3-.3.3h-2.6c-.2 0-.3-.1-.3-.3 0-.2.1-.3.3-.3h.8c.1 0 .2-.1.2-.2v-8.9c0-.1-.1-.2-.2-.2h-.8z"/><path class="st1" d="M132.4 11.3c-.2 0-.4-.1-.5-.3l-2.5-3.6c-.1-.1-.2-.2-.3-.2-.4 0-.8.1-1.3.1h-3.4c-.1 0-.2.1-.2.2v3.5c0 .2-.1.3-.3.3h-.1c-.2 0-.3-.1-.3-.3v-10c0-.2.1-.3.3-.3h4c3.3 0 4.6 1 4.6 3.3 0 1.6-.6 2.6-2.2 3-.1 0-.1.1-.1.2l2.6 3.7c.1.1 0 .3-.1.3h-.2zm-4.6-9.9h-3.3c-.1 0-.2.1-.2.2v4.9c0 .1.1.2.2.2h3.3c2.9 0 3.9-.9 3.9-2.6-.1-1.9-1-2.7-3.9-2.7z"/><path class="st1" d="M134.6 11.3c-.2 0-.3-.1-.3-.3v-10c0-.2.1-.3.3-.3h6.9c.2 0 .3.1.3.3 0 .2-.1.3-.3.3h-6.3c-.1 0-.2.1-.2.2v3.8c0 .1.1.2.2.2h5.1c.2 0 .3.1.3.3 0 .2-.1.3-.3.3h-5.1c-.1 0-.2.1-.2.2v4c0 .1.1.2.2.2h6.3c.2 0 .3.1.3.3 0 .2-.1.3-.3.3h-6.9z"/><path class="st1" d="M142.9 6c0 3 1.7 4.8 4.5 4.8 1.1 0 2.1-.3 2.9-.7.2-.1.3 0 .4.1.1.1 0 .3-.1.4-.9.5-1.9.8-3.2.8-3.3 0-5.2-2-5.2-5.4s2-5.4 5.2-5.4c1.2 0 2.2.2 3.2.7.1.1.2.3.2.4-.1.2-.3.2-.4.2-.9-.4-1.9-.6-2.9-.6-3-.1-4.6 1.7-4.6 4.7z"/><path class="st1" d="M151.7 1.4c-.2 0-.3-.1-.3-.3 0-.2.1-.3.3-.3h9c.2 0 .3.1.3.3 0 .2-.1.3-.3.3h-3.9c-.1 0-.2.1-.2.2v9.4c0 .2-.1.3-.3.3h-.1c-.2 0-.3-.1-.3-.3v-9.4c0-.1-.1-.2-.2-.2h-4z"/></svg>